HIERARCHY
ROOT joint_Root
{
	OFFSET 0.0 0.0 0.0
	CHANNELS 6 Xposition Yposition Zposition Zrotation Xrotation Yrotation 
	JOINT Hips
	{
		OFFSET -0.726466 93.3139 -2.00062
		CHANNELS 6 Xposition Yposition Zposition Zrotation Xrotation Yrotation 
		JOINT Spine
		{
			OFFSET 15.7357 0.0 0.0
			CHANNELS 6 Xposition Yposition Zposition Zrotation Xrotation Yrotation 
			JOINT Chest
			{
				OFFSET 8.98455 -0.406207 0.0
				CHANNELS 6 Xposition Yposition Zposition Zrotation Xrotation Yrotation 
				JOINT Neck
				{
					OFFSET 16.3773 0.0 0.0
					CHANNELS 6 Xposition Yposition Zposition Zrotation Xrotation Yrotation 
					JOINT Head
					{
						OFFSET 6.45672 0.0 0.0
						CHANNELS 6 Xposition Yposition Zposition Zrotation Xrotation Yrotation 
						End Site
						{
							OFFSET 0.0 0.0 0.0
						}
					}
				}
				JOINT Shoulder_L
				{
					OFFSET 12.9942 -0.242716 4.98039
					CHANNELS 6 Xposition Yposition Zposition Zrotation Xrotation Yrotation 
					JOINT UpperArm_L
					{
						OFFSET 5.34809 0.0 0.0
						CHANNELS 6 Xposition Yposition Zposition Zrotation Xrotation Yrotation 
						JOINT LowerArm_L
						{
							OFFSET 24.3286 1.87007e-05 0.0
							CHANNELS 6 Xposition Yposition Zposition Zrotation Xrotation Yrotation 
							JOINT Hand_L
							{
								OFFSET 22.2916 0.0 0.0
								CHANNELS 6 Xposition Yposition Zposition Zrotation Xrotation Yrotation 
								End Site
								{
									OFFSET 0.0 0.0 0.0
								}
							}
						}
					}
				}
				JOINT Shoulder_R
				{
					OFFSET 12.9945 -0.242716 -4.98039
					CHANNELS 6 Xposition Yposition Zposition Zrotation Xrotation Yrotation 
					JOINT UpperArm_R
					{
						OFFSET -5.34813 0.0 0.0
						CHANNELS 6 Xposition Yposition Zposition Zrotation Xrotation Yrotation 
						JOINT LowerArm_R
						{
							OFFSET -24.3289 0.000322201 0.0
							CHANNELS 6 Xposition Yposition Zposition Zrotation Xrotation Yrotation 
							JOINT Hand_R
							{
								OFFSET -22.2915 -0.000108084 0.0
								CHANNELS 6 Xposition Yposition Zposition Zrotation Xrotation Yrotation 
								End Site
								{
									OFFSET 0.0 0.0 0.0
								}
							}
						}
					}
				}
			}
		}
		JOINT UpperLeg_L
		{
			OFFSET -2.19248 -6.46944 0.0
			CHANNELS 6 Xposition Yposition Zposition Zrotation Xrotation Yrotation 
			JOINT LowerLeg_L
			{
				OFFSET 39.0811 0.0 -1.23785e-05
				CHANNELS 6 Xposition Yposition Zposition Zrotation Xrotation Yrotation 
				JOINT Foot_L
				{
					OFFSET 40.9854 0.0 -1.26872e-05
					CHANNELS 6 Xposition Yposition Zposition Zrotation Xrotation Yrotation 
					JOINT Toes_L
					{
						OFFSET 11.7543 0.0 0.0
						CHANNELS 6 Xposition Yposition Zposition Zrotation Xrotation Yrotation 
						End Site
						{
							OFFSET 0.0 0.0 0.0
						}
					}
				}
			}
		}
		JOINT UpperLeg_R
		{
			OFFSET -2.19251 6.46944 0.0
			CHANNELS 6 Xposition Yposition Zposition Zrotation Xrotation Yrotation 
			JOINT LowerLeg_R
			{
				OFFSET -39.0811 -0.00228153 -0.0401928
				CHANNELS 6 Xposition Yposition Zposition Zrotation Xrotation Yrotation 
				JOINT Foot_R
				{
					OFFSET -40.9854 0.0 0.0
					CHANNELS 6 Xposition Yposition Zposition Zrotation Xrotation Yrotation 
					JOINT Toes_R
					{
						OFFSET -11.7543 0.0 0.0
						CHANNELS 6 Xposition Yposition Zposition Zrotation Xrotation Yrotation 
						End Site
						{
							OFFSET 0.0 0.0 0.0
						}
					}
				}
			}
		}
	}
}
MOTION
Frames:	5
Frame Time:	0.0333333
0.000000 0.000000 0.000000 0.000000 0.000000 -0.000000 -2.326590 92.009000 -1.463660 87.393600 0.151965 3.662560 15.735700 0.000005 -0.000001 86.735600 85.093400 -85.760900 8.984550 -0.406207 -0.000000 2.037350 -0.607130 1.958470 16.377300 -0.000001 -0.000001 4.522500 -3.802100 1.649180 6.456720 -0.000001 -0.000000 2.255860 -2.471000 -5.509290 12.994200 -0.242716 4.980390 -90.066200 0.214562 -72.862400 5.348090 -0.000007 -0.000001 -65.133800 44.465800 -15.231700 24.328600 0.000019 0.000005 4.183320 8.044070 -27.595400 22.291600 -0.000001 0.000005 7.094300 5.561490 -9.260700 12.994500 -0.242716 -4.980390 87.874700 5.846800 -69.983600 -5.348130 -0.000001 -0.000004 -65.765500 34.496200 -15.525500 -24.328900 0.000322 -0.000009 1.856960 5.330790 -19.247800 -22.291500 -0.000108 -0.000004 5.867180 5.439230 -4.257140 -2.192480 -6.469440 -0.000000 -167.805000 -14.250100 -2.012390 39.081100 -0.000007 -0.000012 -0.184784 0.479996 21.055500 40.985400 -0.000006 -0.000013 -6.558210 4.495230 -63.537900 11.754300 -0.000000 0.000003 -0.000038 -0.000440 -16.594700 -2.192510 6.469440 -0.000001 175.762000 20.807900 179.673000 -39.081100 -0.002282 -0.040193 -0.030344 0.091389 20.222000 -40.985400 0.000008 0.000006 -1.401430 2.346980 -64.595600 -11.754300 -0.000006 -0.000006 -0.006003 -0.070862 -19.457100
0.000000 0.000000 0.000000 0.000000 0.000000 -0.000000 -2.326600 92.008300 -1.508160 87.375000 0.122548 3.695990 15.735700 0.000005 -0.000001 86.607900 85.053100 -85.679400 8.984550 -0.406207 -0.000000 2.116350 -0.630764 1.866890 16.377300 -0.000001 -0.000001 4.436360 -3.770430 1.609060 6.456720 -0.000001 -0.000000 2.002250 -2.423600 -5.657300 12.994200 -0.242716 4.980390 -90.070800 0.228926 -72.821300 5.348090 -0.000007 -0.000001 -64.727800 44.555400 -15.176000 24.328600 0.000019 0.000005 4.123530 7.650890 -28.436300 22.291600 -0.000001 0.000005 6.769490 5.571140 -9.748410 12.994500 -0.242716 -4.980390 87.886200 5.792000 -69.911000 -5.348130 -0.000001 -0.000004 -65.635300 33.412000 -15.512400 -24.328900 0.000322 -0.000009 1.591360 4.467870 -19.640800 -22.291500 -0.000108 -0.000004 7.134980 5.460970 -5.034090 -2.192480 -6.469440 -0.000000 -167.778000 -14.251600 -2.022260 39.081100 -0.000007 -0.000012 -0.184630 0.478691 21.091800 40.985400 -0.000006 -0.000013 -6.557050 4.502220 -63.528000 11.754300 -0.000000 0.000003 -0.000040 -0.000468 -16.595800 -2.192510 6.469440 -0.000001 175.780000 20.830800 179.653000 -39.081100 -0.002282 -0.040193 -0.029824 0.089789 20.261200 -40.985400 0.000008 0.000006 -1.332420 2.396670 -64.586700 -11.754300 -0.000006 -0.000006 -0.006054 -0.071322 -19.475800
0.000000 0.000000 0.000000 0.000000 0.000000 -0.000000 -2.308570 92.021000 -1.581500 87.378800 -0.026603 3.695550 15.735700 0.000005 -0.000001 86.759300 85.022500 -85.897000 8.984550 -0.406207 -0.000000 2.178350 -0.604389 1.734420 16.377300 -0.000001 -0.000001 4.310980 -3.708930 1.504390 6.456720 -0.000001 -0.000000 1.761670 -2.355640 -5.680760 12.994200 -0.242716 4.980390 -90.065700 0.210737 -72.690500 5.348090 -0.000007 -0.000001 -63.390200 45.714600 -15.649000 24.328600 0.000019 0.000005 3.987390 6.984380 -29.822500 22.291600 -0.000001 0.000005 6.355170 5.582600 -10.353400 12.994500 -0.242716 -4.980390 87.862200 5.822010 -69.796600 -5.348130 -0.000001 -0.000004 -65.529800 31.066700 -15.465700 -24.328900 0.000322 -0.000009 1.209920 3.277120 -20.295000 -22.291500 -0.000108 -0.000004 8.625390 5.473450 -5.499510 -2.192480 -6.469440 -0.000000 -167.798000 -14.345700 -2.015630 39.081100 -0.000007 -0.000012 -0.183178 0.476018 21.047700 40.985400 -0.000006 -0.000013 -6.546180 4.443090 -63.473700 11.754300 -0.000000 0.000003 -0.000040 -0.000469 -16.595800 -2.192510 6.469440 -0.000001 175.808000 20.750600 179.567000 -39.081100 -0.002282 -0.040193 -0.026098 0.079680 20.265000 -40.985400 0.000008 0.000006 -1.193490 2.440960 -64.528100 -11.754300 -0.000006 -0.000006 -0.006027 -0.071083 -19.466100
0.000000 0.000000 0.000000 0.000000 0.000000 -0.000000 -2.291290 92.024700 -1.641650 87.320100 -0.180883 3.668830 15.735700 0.000005 -0.000001 86.741500 85.005100 -85.906400 8.984550 -0.406207 -0.000000 2.212650 -0.607867 1.680420 16.377300 -0.000001 -0.000001 4.241100 -3.633540 1.392640 6.456720 -0.000001 -0.000000 1.441350 -2.287740 -5.904290 12.994200 -0.242716 4.980390 -90.092600 0.294380 -72.542800 5.348090 -0.000007 -0.000001 -61.312200 47.439900 -16.270200 24.328600 0.000019 0.000005 4.312430 6.892770 -32.142400 22.291600 -0.000001 0.000005 5.854790 5.596400 -11.132200 12.994500 -0.242716 -4.980390 87.850000 5.801100 -69.623600 -5.348130 -0.000001 -0.000004 -65.119100 28.051700 -15.656400 -24.328900 0.000322 -0.000009 0.756285 1.938260 -21.354000 -22.291500 -0.000108 -0.000004 9.964240 5.477640 -5.657020 -2.192480 -6.469440 -0.000000 -167.754000 -14.540200 -2.093180 39.081100 -0.000007 -0.000012 -0.183213 0.473938 21.135500 40.985400 -0.000006 -0.000013 -6.519530 4.429540 -63.478700 11.754300 -0.000000 0.000003 -0.000040 -0.000467 -16.595700 -2.192510 6.469440 -0.000001 175.897000 20.677500 179.468000 -39.081100 -0.002282 -0.040193 -0.024458 0.075267 20.257700 -40.985400 0.000008 0.000006 -1.113900 2.509270 -64.465700 -11.754300 -0.000006 -0.000006 -0.006073 -0.071494 -19.482900
0.000000 0.000000 0.000000 0.000000 0.000000 -0.000000 -2.243600 92.037200 -1.691140 87.359500 -0.353352 3.787390 15.735700 0.000005 -0.000001 86.537200 84.933300 -85.764900 8.984550 -0.406207 -0.000000 2.353870 -0.648057 1.556370 16.377300 -0.000001 -0.000001 4.121510 -3.570440 1.276870 6.456720 -0.000001 -0.000000 1.137410 -2.194730 -6.146040 12.994200 -0.242716 4.980390 -90.098800 0.312017 -72.436200 5.348090 -0.000007 -0.000001 -58.633800 49.506100 -17.019800 24.328600 0.000019 0.000005 4.638800 6.557540 -35.394400 22.291600 -0.000001 0.000005 5.228720 5.608980 -11.899700 12.994500 -0.242716 -4.980390 87.834600 5.798060 -69.479500 -5.348130 -0.000001 -0.000004 -64.245600 24.599400 -16.249000 -24.328900 0.000322 -0.000009 0.250457 0.597446 -22.858200 -22.291500 -0.000108 -0.000004 10.662900 5.479640 -5.735380 -2.192480 -6.469440 -0.000000 -167.804000 -14.519600 -1.913020 39.081100 -0.000007 -0.000012 -0.181440 0.471364 21.053200 40.985400 -0.000006 -0.000013 -6.509440 4.299260 -63.455500 11.754300 -0.000000 0.000003 -0.000037 -0.000436 -16.594500 -2.192510 6.469440 -0.000001 175.788000 20.673900 179.555000 -39.081100 -0.002282 -0.040193 -0.022199 0.069232 20.234500 -40.985400 0.000008 0.000006 -1.047150 2.663430 -64.401000 -11.754300 -0.000006 -0.000006 -0.006254 -0.073129 -19.549500
